<?xml version="1.0" standalone="no"?>
<!DOCTYPE svg PUBLIC "-//W3C//DTD SVG 20010904//EN"
 "http://www.w3.org/TR/2001/REC-SVG-20010904/DTD/svg10.dtd">
<svg version="1.0" xmlns="http://www.w3.org/2000/svg"
 width="3543.000000pt" height="3100.000000pt" viewBox="0 0 3543.000000 3100.000000"
 preserveAspectRatio="xMidYMid meet">

<g transform="translate(0.000000,3100.000000) scale(0.100000,-0.100000)"
fill="#000000" stroke="none">
<path d="M0 15445 l0 -10235 9440 0 9440 0 0 5930 0 5929 -87 43 c-49 24 -89
46 -91 51 -2 4 -10 7 -18 7 -8 0 -14 4 -14 8 0 4 -14 16 -31 26 -50 30 -219
197 -261 259 -50 73 -95 168 -103 218 l-7 39 -261 2 -262 3 258 2 257 3 0 35
0 35 -257 2 -258 3 253 2 252 3 0 155 0 155 -250 0 c-157 0 -250 4 -250 10 0
6 96 11 252 12 l253 3 3 52 4 53 -259 3 -258 2 263 3 262 2 0 35 0 35 -262 3
-263 2 266 3 266 2 7 53 c14 108 69 337 113 467 78 234 119 305 408 696 143
194 267 363 275 375 8 12 20 27 26 33 5 6 88 117 184 246 95 129 264 357 375
505 485 649 1128 1515 1155 1555 8 12 20 28 26 34 7 7 96 127 199 267 104 140
279 376 390 524 401 536 1143 1535 1193 1605 9 13 76 84 147 158 140 144 270
255 418 353 50 34 95 66 98 72 3 5 9 8 13 7 4 0 38 16 76 37 l70 38 0 158 0
157 -75 0 -75 0 -3 -192 -2 -193 -3 193 -2 192 -11645 0 -11645 0 0 -10235z
m18153 2958 c-72 -2 -194 -2 -270 0 -76 1 -16 3 132 3 149 0 211 -2 138 -3z"/>
<path d="M23464 25525 c0 -88 2 -123 3 -77 2 46 2 118 0 160 -1 42 -3 5 -3
-83z"/>
<path d="M23484 25530 c0 -85 2 -120 3 -77 2 42 2 112 0 155 -1 42 -3 7 -3
-78z"/>
<path d="M23504 25535 c0 -82 2 -115 3 -72 2 43 2 110 0 150 -1 40 -3 5 -3
-78z"/>
<path d="M23520 25541 l0 -139 75 31 75 32 0 108 c0 100 -1 107 -20 107 -18 0
-20 -8 -23 -112 l-3 -113 -2 113 -2 112 -50 0 -50 0 0 -139z"/>
<path d="M23680 25579 c0 -95 1 -100 20 -97 12 2 21 6 20 11 0 4 0 48 0 97 0
83 -1 90 -20 90 -19 0 -20 -7 -20 -101z"/>
<path d="M23730 25590 c0 -102 2 -103 73 -71 23 10 56 22 72 25 l30 6 -3 65
-4 65 -84 0 -84 0 0 -90z"/>
<path d="M23920 25620 c0 -33 4 -60 10 -60 6 0 10 27 10 60 0 33 -4 60 -10 60
-6 0 -10 -27 -10 -60z"/>
<path d="M23950 25625 c0 -42 3 -55 15 -55 12 0 15 13 15 55 0 42 -3 55 -15
55 -12 0 -15 -13 -15 -55z"/>
<path d="M23990 25630 c0 -38 4 -50 15 -50 11 0 15 12 15 50 0 38 -4 50 -15
50 -11 0 -15 -12 -15 -50z"/>
<path d="M24030 25635 c0 -33 4 -45 15 -45 11 0 15 12 15 45 0 33 -4 45 -15
45 -11 0 -15 -12 -15 -45z"/>
<path d="M24070 25640 c0 -29 4 -40 15 -40 11 0 15 11 15 40 0 29 -4 40 -15
40 -11 0 -15 -11 -15 -40z"/>
<path d="M24110 25645 c0 -28 4 -35 20 -35 16 0 20 7 20 35 0 28 -4 35 -20 35
-16 0 -20 -7 -20 -35z"/>
<path d="M24160 25650 c0 -23 4 -30 20 -30 16 0 20 7 20 30 0 23 -4 30 -20 30
-16 0 -20 -7 -20 -30z"/>
<path d="M24210 25655 c0 -20 5 -25 25 -25 20 0 25 5 25 25 0 20 -5 25 -25 25
-20 0 -25 -5 -25 -25z"/>
<path d="M24270 25660 c0 -15 7 -20 25 -20 18 0 25 5 25 20 0 15 -7 20 -25 20
-18 0 -25 -5 -25 -20z"/>
<path d="M24340 25665 c0 -10 11 -15 35 -15 26 0 33 3 29 15 -4 9 -19 15 -35
15 -19 0 -29 -5 -29 -15z"/>
<path d="M24430 25670 c0 -5 20 -10 45 -10 25 0 45 5 45 10 0 6 -20 10 -45 10
-25 0 -45 -4 -45 -10z"/>
<path d="M27272 25673 c1494 -2 3942 -2 5440 0 1498 1 275 2 -2717 2 -2992 0
-4217 -1 -2723 -2z"/>
<path d="M23626 21833 c-136 -175 -263 -340 -284 -367 -32 -42 -58 -74 -115
-146 -7 -8 -136 -175 -288 -370 -237 -306 -721 -929 -752 -968 -5 -7 -8 -14
-6 -16 2 -2 94 47 204 109 l200 113 3 -116 3 -115 1311 6 c721 4 1313 9 1316
11 8 9 -10 1736 -19 1736 -5 0 -10 -195 -12 -432 l-2 -433 -3 438 c-1 280 -6
437 -12 437 -6 0 -11 -157 -13 -437 l-2 -438 -3 443 c-1 283 -6 442 -12 442
-6 0 -11 -157 -13 -437 l-2 -438 -3 443 c-1 283 -6 442 -12 442 -6 0 -11 -159
-13 -442 l-2 -443 -3 446 -2 447 -22 7 c-31 10 -37 12 -43 15 -3 1 -9 3 -14 4
-5 0 -13 4 -17 8 -4 4 -13 3 -21 -4 -11 -9 -13 -8 -11 2 2 8 -1 15 -7 15 -5 1
-17 5 -25 8 -16 7 -252 87 -257 87 -2 0 -4 -217 -6 -482 l-2 -483 -3 485 -2
486 -147 48 c-82 27 -154 51 -160 53 -10 4 -13 -104 -16 -503 l-2 -509 -3 513
c-1 330 -6 512 -12 512 -6 0 -11 -182 -13 -512 l-2 -513 -3 518 c-1 333 -6
517 -12 517 -6 0 -11 -182 -13 -512 l-2 -513 -3 518 c-1 333 -6 517 -12 517
-6 0 -11 -184 -13 -517 l-2 -518 -3 523 c-1 336 -6 522 -12 522 -6 0 -11 -184
-13 -517 l-2 -518 -3 523 c-1 336 -6 522 -12 522 -6 0 -11 -186 -13 -522 l-2
-523 -3 528 c-1 340 -6 527 -12 527 -6 0 -11 -186 -13 -522 l-2 -523 -3 528
c-1 340 -6 527 -12 527 -6 0 -11 -187 -13 -527 l-2 -528 -3 533 c-1 343 -6
532 -12 532 -6 0 -11 -187 -13 -527 l-2 -528 -3 533 c-1 343 -6 532 -12 532
-6 0 -11 -189 -13 -532 l-2 -533 -3 538 c-1 346 -6 537 -12 537 -6 0 -11 -159
-13 -442 l-2 -443 -3 448 c-1 286 -6 447 -12 447 -6 0 -11 -131 -13 -357 l-2
-358 -3 363 c-1 229 -6 362 -12 362 -6 0 -11 -102 -13 -272 l-2 -273 -3 278
c-1 172 -6 277 -12 277 -6 0 -11 -72 -13 -182 l-2 -183 -3 186 c-2 184 -2 187
-24 193 -13 3 -28 6 -35 6 -6 0 -122 -143 -257 -317z m291 130 c-3 -10 -5 -4
-5 12 0 17 2 24 5 18 2 -7 2 -21 0 -30z m780 -805 c-1 -134 -2 -27 -2 237 0
264 1 373 2 243 2 -130 2 -346 0 -480z m30 -5 c-1 -131 -2 -24 -2 237 0 261 1
368 2 238 2 -131 2 -345 0 -475z m30 -10 c-1 -131 -2 -24 -2 237 0 261 1 368
2 238 2 -131 2 -345 0 -475z m30 -6 c-1 -128 -2 -20 -2 238 0 259 1 363 2 232
2 -131 2 -343 0 -470z m30 -10 c-1 -128 -2 -20 -2 238 0 259 1 363 2 232 2
-131 2 -343 0 -470z"/>
<path d="M25220 21264 c0 -287 3 -433 10 -429 6 4 10 160 10 436 0 279 -3 429
-10 429 -7 0 -10 -152 -10 -436z"/>
<path d="M25250 21260 c0 -280 3 -430 10 -430 7 0 10 150 10 430 0 280 -3 430
-10 430 -7 0 -10 -150 -10 -430z"/>
<path d="M25280 21255 c0 -277 3 -425 10 -425 7 0 10 148 10 425 0 277 -3 425
-10 425 -7 0 -10 -148 -10 -425z"/>
<path d="M25310 21245 c0 -277 3 -425 10 -425 7 0 10 148 10 425 0 277 -3 425
-10 425 -7 0 -10 -148 -10 -425z"/>
<path d="M25340 21240 c0 -273 3 -420 10 -420 7 0 10 147 10 420 0 273 -3 420
-10 420 -7 0 -10 -147 -10 -420z"/>
<path d="M25370 21230 c0 -273 3 -420 10 -420 7 0 10 147 10 420 0 273 -3 420
-10 420 -7 0 -10 -147 -10 -420z"/>
<path d="M25400 21225 c0 -270 3 -415 10 -415 7 0 10 145 10 415 0 270 -3 415
-10 415 -7 0 -10 -145 -10 -415z"/>
<path d="M25430 21215 c0 -270 3 -415 10 -415 7 0 10 145 10 415 0 270 -3 415
-10 415 -7 0 -10 -145 -10 -415z"/>
<path d="M25460 21210 c0 -267 3 -410 10 -410 7 0 10 143 10 410 0 267 -3 410
-10 410 -7 0 -10 -143 -10 -410z"/>
<path d="M25490 21201 c0 -263 4 -412 10 -416 7 -4 10 135 10 409 0 271 -3
416 -10 416 -7 0 -10 -143 -10 -409z"/>
<path d="M25520 21197 c0 -445 -4 -416 60 -422 14 -1 25 -3 25 -5 0 -1 11 -3
25 -4 14 0 30 -4 35 -8 6 -4 23 -5 38 -4 15 2 27 -1 27 -5 0 -5 14 -7 30 -5
17 2 30 0 30 -4 0 -4 11 -7 25 -7 l25 0 0 383 0 383 -147 47 c-82 26 -154 49
-160 51 -10 4 -13 -80 -13 -400z"/>
<path d="M25850 21105 c0 -247 4 -385 10 -385 6 0 11 139 13 383 l2 382 3
-382 c1 -244 6 -383 12 -383 6 0 11 137 13 378 l2 377 3 -382 c1 -244 6 -383
12 -383 6 0 11 136 13 373 l2 372 3 -374 c2 -327 4 -372 17 -367 8 3 15 1 15
-4 0 -5 14 -8 30 -6 17 2 30 0 30 -5 0 -5 14 -7 30 -5 l30 3 0 -363 0 -364
668 0 c368 0 960 3 1315 7 l647 6 0 274 c0 170 -4 273 -10 273 -5 0 -11 -59
-13 -142 l-3 -143 -2 148 c-3 192 -20 195 -25 5 l-3 -143 -2 148 c-1 87 -6
147 -12 147 -5 0 -11 -61 -13 -147 l-3 -148 -2 153 c-3 196 -20 203 -25 10
l-3 -143 -2 148 c-1 87 -6 147 -12 147 -5 0 -11 -61 -13 -147 l-3 -148 -2 153
c-3 201 -21 205 -24 5 l-2 -148 -6 155 c-4 113 -8 155 -17 156 -7 1 -15 3 -18
4 -3 1 -9 4 -15 5 -5 1 -12 4 -15 5 -3 1 -9 4 -15 5 -5 1 -12 4 -15 5 -3 1 -9
4 -15 5 -5 1 -12 4 -15 5 -3 1 -8 3 -12 5 -5 1 -15 5 -23 8 -47 21 -490 164
-490 159 -1 -4 0 -96 0 -204 0 -135 -3 -198 -10 -198 -7 0 -10 66 -10 208 1
114 -2 207 -7 207 -4 0 -10 -94 -13 -210 l-6 -210 -2 220 c-3 282 -20 279 -25
-5 l-2 -205 -3 218 c-1 133 -6 217 -12 217 -6 0 -11 -84 -13 -217 l-2 -218 -3
223 c-3 295 -21 298 -25 5 l-2 -218 -3 223 c-1 137 -6 222 -12 222 -6 0 -11
-86 -13 -222 l-2 -223 -3 228 c-3 302 -21 305 -25 5 l-2 -223 -3 228 c-1 140
-6 227 -12 227 -6 0 -11 -87 -13 -227 l-2 -228 -3 233 c-3 308 -21 312 -25 5
l-2 -228 -3 233 c-1 143 -6 232 -12 232 -6 0 -11 -89 -13 -232 l-2 -233 -3
238 c-3 315 -21 319 -25 5 l-2 -233 -3 238 c-1 147 -6 237 -12 237 -6 0 -11
-91 -13 -237 l-2 -238 -3 243 c-3 322 -21 326 -25 5 l-2 -238 -3 243 c-1 150
-6 242 -12 242 -6 0 -11 -92 -13 -242 l-2 -243 -3 248 c-3 329 -21 333 -25 5
l-2 -243 -3 248 c-1 153 -6 247 -12 247 -6 0 -11 -94 -13 -247 l-2 -248 -3
253 c-3 333 -21 340 -25 10 l-2 -243 -3 245 -2 245 -333 113 c-182 62 -336
113 -342 115 -6 1 -12 -108 -15 -303 l-6 -305 -1 305 c-1 168 -6 306 -10 308
-4 1 -10 -134 -13 -300 l-5 -303 -3 315 c-1 206 -5 311 -12 304 -6 -6 -11
-132 -13 -314 l-2 -305 -3 320 c-1 209 -5 316 -12 309 -6 -6 -11 -132 -13
-314 l-2 -305 -3 320 c-1 209 -5 316 -12 309 -6 -6 -11 -133 -13 -319 l-2
-310 -3 325 c-1 213 -5 321 -12 314 -6 -6 -11 -133 -13 -319 l-2 -310 -3 323
c-1 203 -6 322 -12 322 -6 0 -11 -119 -13 -322 l-2 -323 -3 328 c-1 207 -6
327 -12 327 -6 0 -11 -119 -13 -322 l-2 -323 -3 328 c-1 207 -6 327 -12 327
-6 0 -11 -121 -13 -327 l-2 -328 -3 333 c-1 210 -6 332 -12 332 -6 0 -11 -121
-13 -327 l-2 -328 -3 333 c-1 210 -6 332 -12 332 -6 0 -11 -122 -13 -332 l-2
-333 -3 338 c-1 213 -6 337 -12 337 -6 0 -11 -122 -13 -332 l-2 -333 -3 338
c-1 213 -6 337 -12 337 -6 0 -11 -124 -13 -337 l-2 -338 -3 343 c-1 216 -6
342 -12 342 -6 0 -11 -124 -13 -337 l-2 -338 -3 343 c-1 217 -6 342 -12 342
-6 0 -11 -126 -13 -342 l-2 -343 -3 348 c-1 220 -6 347 -12 347 -6 0 -11 -126
-13 -342 l-2 -343 -3 349 c-2 294 -4 347 -16 343 -8 -3 -17 -3 -21 1 -4 4 -10
7 -13 8 -4 0 -20 6 -37 13 -39 17 -287 101 -297 101 -4 0 -8 -173 -8 -385z
m117 -203 c-1 -97 -2 -15 -2 183 0 198 1 278 2 177 2 -101 2 -263 0 -360z
m1060 -219 c-1 -76 -3 -14 -3 137 0 151 2 213 3 138 2 -76 2 -200 0 -275z m30
-10 c-1 -76 -3 -14 -3 137 0 151 2 213 3 138 2 -76 2 -200 0 -275z m30 -6 c-1
-73 -3 -10 -3 138 0 149 2 208 3 132 2 -76 2 -198 0 -270z m30 -10 c-1 -73 -3
-10 -3 138 0 149 2 208 3 132 2 -76 2 -198 0 -270z m1120 -239 c-1 -51 -3 -12
-3 87 0 99 2 141 3 93 2 -48 2 -129 0 -180z m30 -5 c-1 -49 -3 -9 -3 87 0 96
2 136 3 88 2 -49 2 -127 0 -175z m250 -50 c-1 -43 -3 -10 -3 72 0 83 2 118 3
78 2 -40 2 -107 0 -150z"/>
<path d="M28730 20385 c0 -83 4 -135 10 -135 6 0 10 52 10 135 0 83 -4 135
-10 135 -6 0 -10 -52 -10 -135z"/>
<path d="M28760 20380 c0 -80 4 -130 10 -130 6 0 10 50 10 130 0 80 -4 130
-10 130 -6 0 -10 -50 -10 -130z"/>
<path d="M28790 20370 c0 -80 4 -130 10 -130 6 0 10 50 10 130 0 80 -4 130
-10 130 -6 0 -10 -50 -10 -130z"/>
<path d="M28820 20365 c0 -77 4 -125 10 -125 6 0 10 48 10 125 0 77 -4 125
-10 125 -6 0 -10 -48 -10 -125z"/>
<path d="M28850 20355 c0 -77 4 -125 10 -125 6 0 10 48 10 125 0 77 -4 125
-10 125 -6 0 -10 -48 -10 -125z"/>
<path d="M28880 20350 c0 -73 4 -120 10 -120 6 0 10 47 10 120 0 73 -4 120
-10 120 -6 0 -10 -47 -10 -120z"/>
<path d="M28910 20340 c0 -73 4 -120 10 -120 6 0 10 47 10 120 0 73 -4 120
-10 120 -6 0 -10 -47 -10 -120z"/>
<path d="M28940 20335 c0 -70 4 -115 10 -115 6 0 10 45 10 115 0 70 -4 115
-10 115 -6 0 -10 -45 -10 -115z"/>
<path d="M28970 20326 c0 -66 4 -117 10 -121 6 -4 11 36 12 112 l2 118 5 -115
c4 -63 10 -115 14 -115 5 0 9 50 10 112 2 104 1 112 -18 117 -11 3 -23 6 -27
6 -5 0 -8 -51 -8 -114z"/>
<path d="M29038 20309 c-3 -104 0 -127 16 -112 10 10 7 223 -3 223 -6 0 -11
-50 -13 -111z"/>
<path d="M29070 20299 c0 -71 4 -108 10 -104 6 3 10 52 10 111 0 63 -4 104
-10 104 -6 0 -10 -44 -10 -111z"/>
<path d="M29100 20292 l0 -111 25 5 c14 2 25 0 25 -6 0 -5 14 -8 30 -6 17 2
30 0 30 -5 0 -5 14 -7 30 -5 17 2 30 0 30 -5 0 -5 14 -7 30 -5 17 2 30 0 30
-5 0 -5 14 -7 30 -5 17 2 30 0 30 -5 0 -5 14 -7 30 -5 17 2 30 0 30 -5 0 -5
14 -7 30 -5 17 2 33 0 35 -4 3 -5 16 -7 30 -5 34 3 43 -11 47 -75 l3 -55 365
-2 c321 -2 362 -1 340 12 -14 8 -32 14 -40 15 -8 0 -27 7 -42 14 -16 8 -28 11
-28 5 0 -5 -4 -9 -10 -9 -5 0 -9 3 -9 8 3 20 -3 23 -18 11 -10 -8 -14 -9 -10
-2 4 6 3 14 -2 18 -5 3 -14 -3 -20 -12 -9 -16 -10 -15 -11 7 -1 23 -1 24 -15
7 -13 -18 -14 -17 -18 5 l-4 23 -9 -25 -8 -25 -7 30 -6 30 -11 -25 -11 -25 0
29 c-1 32 -15 26 -24 -9 -3 -13 -5 -9 -6 13 -1 39 -18 43 -24 5 -4 -26 -4 -26
-6 5 0 17 -5 32 -10 32 -6 0 -12 -15 -14 -32 -4 -32 -4 -32 -5 5 -2 46 -19 49
-25 5 -4 -32 -4 -32 -5 5 -1 20 -6 37 -11 37 -6 0 -12 -17 -14 -37 l-4 -38 -1
43 c-2 52 -19 56 -25 5 l-4 -38 -1 43 c-1 23 -6 42 -11 42 -6 0 -12 -19 -14
-42 l-4 -43 -1 48 c-2 59 -19 62 -25 5 l-4 -43 -1 48 c-1 26 -6 47 -11 47 -6
0 -12 -21 -14 -47 l-3 -48 -2 53 c-2 65 -20 68 -25 5 l-3 -48 -2 54 c-2 42 -5
52 -16 48 -8 -3 -16 -2 -18 2 -2 4 -129 50 -283 101 -154 51 -286 95 -292 98
-10 3 -13 -22 -13 -106z m317 -109 c-2 -21 -4 -6 -4 32 0 39 2 55 4 38 2 -18
2 -50 0 -70z"/>
<path d="M18890 11135 c0 -3943 3 -5925 10 -5925 7 0 10 1982 10 5925 0 3943
-3 5925 -10 5925 -7 0 -10 -1982 -10 -5925z"/>
<path d="M18920 11130 c0 -3940 3 -5920 10 -5920 7 0 10 1980 10 5920 0 3940
-3 5920 -10 5920 -7 0 -10 -1980 -10 -5920z"/>
<path d="M18950 11125 c0 -5251 2 -5915 15 -5915 13 0 15 664 15 5915 0 5251
-2 5915 -15 5915 -13 0 -15 -664 -15 -5915z"/>
<path d="M18990 11120 c0 -5247 2 -5910 15 -5910 13 0 15 663 15 5910 0 5247
-2 5910 -15 5910 -13 0 -15 -663 -15 -5910z"/>
<path d="M19030 11115 l0 -5905 25 0 25 0 0 5905 0 5905 -25 0 -25 0 0 -5905z"/>
<path d="M19990 11115 l0 -5905 465 0 465 0 3 2898 2 2897 3 -2897 2 -2898
1740 0 1740 0 3 2067 2 2068 3 -2067 2 -2068 70 0 70 0 0 2023 0 2024 -98 66
c-307 204 -478 387 -621 667 -169 329 -321 817 -321 1033 l0 47 -1295 0 -1295
0 2 1373 3 1372 3523 3 3522 2 0 357 0 358 -173 -173 -172 -172 -1968 0 -1967
0 -90 45 -90 45 -1068 0 -1067 0 -80 80 -79 79 -146 4 -145 3 148 2 147 2 0
43 0 43 1240 1238 c682 681 1240 1240 1240 1242 0 2 -837 4 -1860 4 l-1860 0
0 -5905z m937 2858 c-1 -87 -3 -16 -3 157 0 173 2 244 3 158 2 -87 2 -229 0
-315z m1956 -3030 c-353 -2 -933 -2 -1290 0 -356 1 -67 2 642 2 710 0 1001 -1
648 -2z m10 -70 c-353 -2 -933 -2 -1290 0 -356 1 -67 2 642 2 710 0 1001 -1
648 -2z m30 -150 c-353 -2 -933 -2 -1290 0 -356 1 -67 2 642 2 710 0 1001 -1
648 -2z"/>
<path d="M24570 7230 l0 -2020 35 0 35 0 0 1999 0 1999 -35 21 -35 20 0 -2019z"/>
<path d="M24650 7206 l0 -1996 350 0 350 0 0 1809 0 1809 -197 99 c-109 54
-200 100 -203 103 -3 3 -61 37 -130 74 -69 38 -135 76 -147 84 l-23 14 0
-1996z"/>
<path d="M25360 7016 l0 -1806 60 0 60 0 3 1778 2 1777 3 -1777 2 -1778 55 0
55 0 0 1753 0 1752 -112 50 c-62 28 -116 52 -120 53 -4 2 -8 -809 -8 -1802z"/>
<path d="M25610 6960 l0 -1750 40 0 40 0 0 1735 c0 954 -2 1735 -4 1735 -2 0
-20 7 -40 15 l-36 15 0 -1750z"/>
<path d="M25700 6940 l0 -1730 30 0 30 0 0 1718 0 1719 -25 11 c-14 7 -28 12
-30 12 -3 0 -5 -778 -5 -1730z"/>
<path d="M25770 6925 c0 -1708 0 -1715 20 -1715 20 0 20 7 20 1709 0 1549 -1
1709 -16 1715 -9 3 -18 6 -20 6 -2 0 -4 -772 -4 -1715z"/>
<path d="M25825 6915 c0 -940 1 -1324 2 -852 2 472 2 1242 0 1710 -1 469 -2
83 -2 -858z"/>
<path d="M25840 6910 c0 -1693 0 -1700 20 -1700 20 0 20 7 20 1694 0 1535 -1
1694 -16 1700 -9 3 -18 6 -20 6 -2 0 -4 -765 -4 -1700z"/>
<path d="M25890 6900 c0 -1683 0 -1690 20 -1690 20 0 20 7 20 1684 0 1526 -1
1684 -16 1690 -9 3 -18 6 -20 6 -2 0 -4 -760 -4 -1690z"/>
<path d="M25940 6890 c0 -1673 0 -1680 20 -1680 20 0 20 7 20 1674 0 1517 -1
1674 -16 1680 -9 3 -18 6 -20 6 -2 0 -4 -756 -4 -1680z"/>
<path d="M25990 6880 c0 -1663 0 -1670 20 -1670 20 0 20 7 20 1664 0 1508 -1
1664 -16 1670 -9 3 -18 6 -20 6 -2 0 -4 -751 -4 -1670z"/>
<path d="M26040 6870 c0 -1653 0 -1660 20 -1660 20 0 20 7 20 1654 0 1499 -1
1654 -16 1660 -9 3 -18 6 -20 6 -2 0 -4 -747 -4 -1660z"/>
<path d="M26096 8503 c-3 -3 -6 -746 -6 -1650 0 -1635 0 -1643 20 -1643 20 0
20 9 22 1641 3 1503 2 1642 -13 1650 -9 4 -19 5 -23 2z"/>
<path d="M26146 8482 c-3 -3 -6 -740 -6 -1639 l0 -1633 65 0 65 0 -2 1618 c-2
937 -7 1616 -12 1614 -5 -2 -12 1 -16 8 -4 6 -17 12 -28 13 -12 1 -22 4 -22 8
0 9 -37 18 -44 11z"/>
<path d="M26280 6824 c0 -1607 0 -1614 20 -1614 20 0 20 7 20 1609 0 1600 0
1609 -20 1614 -20 5 -20 0 -20 -1609z"/>
<path d="M26330 6816 c0 -1064 3 -1606 10 -1606 7 0 10 540 10 1599 0 1056 -3
1602 -10 1606 -7 4 -10 -532 -10 -1599z"/>
<path d="M26360 6809 c0 -1592 0 -1599 20 -1599 20 0 20 8 23 1588 l2 1587 3
-1587 c1 -1051 5 -1588 12 -1588 7 0 10 536 10 1588 l0 1589 -35 10 -35 11 0
-1599z"/>
<path d="M26440 6796 c0 -1051 3 -1586 10 -1586 7 0 10 533 10 1579 0 1043 -3
1582 -10 1586 -7 4 -10 -525 -10 -1579z"/>
<path d="M26470 6786 l0 -1576 35 0 35 0 3 1563 2 1562 3 -1562 2 -1563 60 0
60 0 2 1545 3 1545 -33 11 c-18 6 -39 12 -45 13 -7 2 -25 8 -42 15 -16 7 -42
15 -57 18 l-28 6 0 -1577z"/>
<path d="M26680 6751 l0 -1541 85 0 85 0 0 1519 0 1519 -62 16 c-35 9 -73 19
-85 22 l-23 6 0 -1541z"/>
<path d="M26860 6725 c0 -1340 2 -1515 15 -1515 13 0 15 175 15 1515 0 1340
-2 1515 -15 1515 -13 0 -15 -175 -15 -1515z"/>
<path d="M26900 6720 l0 -1510 30 0 30 0 0 1504 0 1504 -22 6 c-13 3 -26 6
-30 6 -5 0 -8 -679 -8 -1510z"/>
<path d="M26970 6710 c0 -1327 2 -1500 15 -1500 13 0 15 173 15 1500 0 1327
-2 1500 -15 1500 -13 0 -15 -173 -15 -1500z"/>
<path d="M27010 6705 c0 -987 3 -1495 10 -1495 7 0 11 509 13 1493 l2 1492 3
-1492 c2 -1319 4 -1493 17 -1493 13 0 15 172 15 1489 l0 1489 -22 6 c-13 3
-26 6 -30 6 -5 0 -8 -673 -8 -1495z"/>
<path d="M27080 6695 c0 -1313 2 -1485 15 -1485 13 0 15 172 15 1485 0 1313
-2 1485 -15 1485 -13 0 -15 -172 -15 -1485z"/>
<path d="M27120 6690 c0 -977 3 -1480 10 -1480 7 0 11 504 13 1478 l2 1477 3
-1477 2 -1478 30 0 30 0 0 1468 0 1469 -39 11 c-21 7 -41 12 -45 12 -3 0 -6
-666 -6 -1480z"/>
<path d="M27220 6675 c0 -970 3 -1465 10 -1465 7 0 10 495 10 1465 0 970 -3
1465 -10 1465 -7 0 -10 -495 -10 -1465z"/>
<path d="M27250 6670 l0 -1460 45 0 45 0 0 1448 0 1449 -39 11 c-21 7 -41 12
-45 12 -3 0 -6 -657 -6 -1460z"/>
<path d="M27350 6654 l0 -1444 35 0 35 0 0 1433 0 1434 -35 10 -35 11 0 -1444z"/>
<path d="M27430 6640 c0 -1423 0 -1430 20 -1430 20 0 20 7 20 1424 0 1289 -1
1424 -16 1430 -9 3 -18 6 -20 6 -2 0 -4 -643 -4 -1430z"/>
<path d="M27480 6629 l0 -1419 30 0 30 0 0 1409 0 1409 -30 11 -30 10 0 -1420z"/>
<path d="M27555 6615 c0 -775 1 -1094 2 -708 2 386 2 1020 0 1410 -1 389 -2
74 -2 -702z"/>
<path d="M27570 6610 l0 -1400 125 0 125 0 3 1328 2 1327 3 -1327 c2 -1321 2
-1328 22 -1328 20 0 20 7 20 1324 l0 1325 -22 7 c-13 4 -25 10 -28 14 -6 9
-233 130 -243 130 -4 0 -7 -630 -7 -1400z"/>
<path d="M27880 6525 l0 -1315 1315 0 1315 0 0 36 c0 27 -9 48 -34 78 -112
138 -662 756 -837 941 -662 703 -1049 1068 -1449 1366 -194 144 -276 200 -284
192 -3 -4 -6 -1 -6 5 0 7 -4 12 -10 12 -7 0 -10 -445 -10 -1315z"/>
<path d="M30540 5245 l0 -35 270 0 270 0 0 35 0 35 -270 0 -270 0 0 -35z"/>
<path d="M31270 5240 l0 -30 300 0 300 0 0 30 0 30 -300 0 -300 0 0 -30z"/>
<path d="M32080 5235 l0 -25 204 0 c204 0 205 0 209 23 l4 22 2 -22 c1 -22 5
-23 96 -23 95 0 95 0 95 25 l0 25 -305 0 -305 0 0 -25z"/>
<path d="M32890 5230 c0 -20 7 -20 310 -20 303 0 310 0 310 20 0 20 -7 20
-310 20 -303 0 -310 0 -310 -20z"/>
<path d="M33720 5225 c0 -13 42 -15 315 -15 273 0 315 2 315 15 0 13 -42 15
-315 15 -273 0 -315 -2 -315 -15z"/>
<path d="M34550 5220 c0 -6 113 -10 320 -10 207 0 320 4 320 10 0 6 -113 10
-320 10 -207 0 -320 -4 -320 -10z"/>
<path d="M35408 5213 c7 -3 16 -2 19 1 4 3 -2 6 -13 5 -11 0 -14 -3 -6 -6z"/>
</g>
</svg>
